<?xml version="1.0" encoding="UTF-8" standalone="no"?>
<!-- Created with Inkscape (http://www.inkscape.org/) -->

<svg
   xmlns:dc="http://purl.org/dc/elements/1.1/"
   xmlns:cc="http://creativecommons.org/ns#"
   xmlns:rdf="http://www.w3.org/1999/02/22-rdf-syntax-ns#"
   xmlns:svg="http://www.w3.org/2000/svg"
   xmlns="http://www.w3.org/2000/svg"
   xmlns:sodipodi="http://sodipodi.sourceforge.net/DTD/sodipodi-0.dtd"
   xmlns:inkscape="http://www.inkscape.org/namespaces/inkscape"
   version="1.1"
   id="svg96"
   xml:space="preserve"
   width="600"
   height="360.03082"
   viewBox="0 0 600 360.03086"
   sodipodi:docname="RDA_Logo.svg"
   inkscape:version="0.92.3 (2405546, 2018-03-11)"><metadata
     id="metadata102"><rdf:RDF><cc:Work
         rdf:about=""><dc:format>image/svg+xml</dc:format><dc:type
           rdf:resource="http://purl.org/dc/dcmitype/StillImage" /><dc:title></dc:title></cc:Work></rdf:RDF></metadata><defs
     id="defs100"><clipPath
       clipPathUnits="userSpaceOnUse"
       id="clipPath112"><path
         d="M 0,194.226 H 297.185 V 0 H 0 Z"
         id="path110"
         inkscape:connector-curvature="0" /></clipPath><clipPath
       clipPathUnits="userSpaceOnUse"
       id="clipPath198"><path
         d="m 60.109,164.753 c -1.205,-0.672 -2.395,-1.353 -3.561,-2.051 v 0 c -0.581,-0.347 -1.151,-0.704 -1.723,-1.058 v 0 c -0.611,-0.379 -1.218,-0.761 -1.817,-1.149 v 0 C 48.162,157.37 43.717,154.018 39.771,150.47 v 0 c -0.034,0.005 -0.069,0.01 -0.104,0.016 v 0 c -0.197,-0.179 -0.392,-0.356 -0.585,-0.535 v 0 c 0.031,-0.007 0.062,-0.012 0.095,-0.017 v 0 c -0.557,-0.511 -1.106,-1.024 -1.642,-1.545 v 0 c -0.928,-0.895 -1.817,-1.803 -2.68,-2.72 v 0 c -0.627,-0.668 -1.236,-1.341 -1.83,-2.02 v 0 c -0.405,-0.465 -0.811,-0.932 -1.201,-1.402 v 0 C 24.421,133.291 20.122,123.401 20.122,113.001 v 0 c 0,-8.767 3.053,-17.17 8.446,-24.959 v 0 c 1.023,-1.479 2.135,-2.935 3.324,-4.368 v 0 c 0.555,-0.67 1.125,-1.334 1.713,-1.993 v 0 c 0.379,-0.424 0.773,-0.841 1.166,-1.259 v 0 c 4.51,-4.813 9.912,-9.325 16.023,-13.461 v 0 c 0.743,-0.501 1.497,-0.997 2.259,-1.486 v 0 c 0.524,-0.338 1.052,-0.672 1.586,-1.004 v 0 c 1.046,-0.651 2.11,-1.292 3.19,-1.924 v 0 C 64.698,58.54 72.236,54.959 80.238,51.898 v 0 c -8.692,3.886 -16.493,8.186 -23.29,12.872 v 0 c 7.317,0.965 14.632,1.805 21.946,2.533 v 0 c 6.638,-4.549 14.105,-8.571 22.107,-11.93 v 0 C 93.527,59.04 86.818,63.1 80.974,67.523 v 0 c 7.992,0.77 15.985,1.383 23.978,1.872 v 0 c -1.087,0.823 -2.147,1.665 -3.178,2.525 v 0 C 94.038,71.247 86.307,70.401 78.58,69.395 v 0 c -5.331,4.311 -9.852,8.95 -13.465,13.904 v 0 c 8.436,0.366 16.715,0.675 24.826,0.925 v 0 c -0.82,1.09 -1.598,2.199 -2.331,3.321 v 0 C 79.188,87.155 71.026,86.691 63.142,86.164 v 0 c -2.4,3.733 -4.301,7.633 -5.651,11.697 v 0 c 8.317,0.392 16.482,0.729 24.491,1.009 v 0 c -0.375,1.075 -0.709,2.161 -0.999,3.258 v 0 C 72.607,101.693 64.5,101.185 56.676,100.622 v 0 c -0.996,3.72 -1.54,7.571 -1.606,11.545 v 0 c 8.108,-0.092 16.285,-0.169 24.498,-0.237 v 0 c -0.01,0.358 -0.028,0.713 -0.028,1.071 v 0 c 0,0.922 0.043,1.837 0.102,2.749 v 0 c -8.221,-0.068 -16.404,-0.145 -24.522,-0.238 v 0 c 0.202,3.959 0.89,7.797 2.017,11.51 v 0 c 7.827,-0.561 15.934,-1.064 24.312,-1.495 v 0 c 0.337,1.096 0.726,2.183 1.146,3.26 v 0 c -8.021,0.278 -16.2,0.612 -24.531,1.002 v 0 c 1.466,3.964 3.454,7.772 5.92,11.417 v 0 c 7.914,-0.522 16.103,-0.984 24.557,-1.37 v 0 c 0.783,1.129 1.606,2.238 2.474,3.331 v 0 c -8.156,0.248 -16.482,0.555 -24.965,0.92 v 0 c 3.766,4.926 8.436,9.526 13.904,13.769 v 0 c 7.803,-0.996 15.608,-1.824 23.416,-2.479 v 0 c 1.09,0.867 2.207,1.714 3.354,2.543 v 0 c -8.076,0.473 -16.148,1.078 -24.225,1.839 v 0 c 5.479,3.965 11.671,7.6 18.502,10.867 v 0 c -7.269,-3.053 -14.095,-6.644 -20.262,-10.688 v 0 c -7.404,0.717 -14.808,1.561 -22.211,2.52 v 0 c 6.419,4.253 13.685,8.148 21.71,11.644 v 0 c -7.127,-2.727 -13.883,-5.866 -20.129,-9.349 M 39.128,145.422 c 4.697,5.716 10.649,11.023 17.694,15.88 v 0 c 7.065,-1.205 14.137,-2.267 21.213,-3.195 v 0 c -6.012,-4.208 -11.314,-8.858 -15.673,-13.862 v 0 c -7.612,0.342 -15.357,0.733 -23.234,1.177 M 30.464,131.27 c 1.739,4.159 4.081,8.157 6.959,11.983 v 0 c 7.284,-0.641 14.838,-1.238 22.659,-1.782 v 0 c -2.855,-3.656 -5.214,-7.48 -6.984,-11.443 v 0 c -7.424,0.367 -14.964,0.779 -22.634,1.242 m -0.769,-1.972 c 7.162,-0.673 14.617,-1.311 22.33,-1.896 v 0 c -1.454,-3.878 -2.357,-7.871 -2.612,-11.958 v 0 c -7.583,-0.093 -15.127,-0.192 -22.584,-0.305 v 0 c 0.22,4.891 1.192,9.618 2.866,14.159 m -2.92,-16.297 c 0,0.018 0.002,0.035 0.002,0.053 v 0 c 0,-0.047 10e-4,-0.095 0.003,-0.143 v 0 c -0.003,0.03 -0.005,0.06 -0.005,0.09 m 0.02,-0.46 c 7.448,-0.114 14.985,-0.212 22.559,-0.305 v 0 c 0.08,-4.097 0.798,-8.108 2.089,-12.005 v 0 C 43.754,99.644 36.324,99.007 29.183,98.332 v 0 c 0.221,-0.657 0.452,-1.311 0.702,-1.961 v 0 c 7.626,0.463 15.124,0.876 22.509,1.243 v 0 c 1.631,-4.059 3.883,-7.98 6.656,-11.733 v 0 C 51.273,85.335 43.753,84.735 36.513,84.092 v 0 c -6.22,8.65 -9.62,18.161 -9.718,28.449 M 38.13,81.947 c 7.82,0.445 15.511,0.836 23.073,1.181 v 0 c 4.169,-5.047 9.29,-9.752 15.143,-14.025 v 0 C 69.345,68.162 62.348,67.09 55.356,65.882 v 0 c -5.115,3.658 -9.611,7.551 -13.441,11.662 v 0 c 0.03,0.004 0.059,0.01 0.088,0.013 v 0 c -0.201,0.214 -0.404,0.427 -0.601,0.643 v 0 c -0.027,-0.005 -0.057,-0.011 -0.085,-0.019 v 0 c -1.124,1.237 -2.185,2.491 -3.187,3.766"
         id="path196"
         inkscape:connector-curvature="0" /></clipPath><radialGradient
       fx="0"
       fy="0"
       cx="0"
       cy="0"
       r="1"
       gradientUnits="userSpaceOnUse"
       gradientTransform="matrix(-128.16922,0,0,128.16922,148.312,113.457)"
       spreadMethod="pad"
       id="radialGradient210"><stop
         style="stop-opacity:1;stop-color:#ffffff"
         offset="0"
         id="stop204" /><stop
         style="stop-opacity:1;stop-color:#ffffff"
         offset="0.37851141"
         id="stop206" /><stop
         style="stop-opacity:1;stop-color:#f0ed05"
         offset="1"
         id="stop208" /></radialGradient><clipPath
       clipPathUnits="userSpaceOnUse"
       id="clipPath220"><path
         d="m 238.712,162.458 c -7.405,-0.959 -14.807,-1.803 -22.212,-2.52 v 0 c -6.166,4.044 -12.994,7.635 -20.261,10.688 v 0 c 6.831,-3.267 13.022,-6.902 18.5,-10.867 v 0 c -8.076,-0.761 -16.149,-1.366 -24.224,-1.839 v 0 c 1.146,-0.829 2.264,-1.676 3.355,-2.543 v 0 c 7.806,0.655 15.612,1.483 23.414,2.479 v 0 c 5.47,-4.243 10.138,-8.843 13.905,-13.769 v 0 c -8.483,-0.365 -16.81,-0.672 -24.966,-0.92 v 0 c 0.87,-1.093 1.692,-2.202 2.474,-3.331 v 0 c 8.454,0.386 16.644,0.848 24.558,1.37 v 0 c 2.466,-3.645 4.455,-7.453 5.919,-11.417 v 0 c -8.329,-0.39 -16.509,-0.724 -24.531,-1.002 v 0 c 0.42,-1.077 0.811,-2.164 1.146,-3.26 v 0 c 8.379,0.431 16.487,0.934 24.313,1.495 v 0 c 1.128,-3.713 1.814,-7.551 2.017,-11.51 v 0 c -8.117,0.093 -16.302,0.17 -24.522,0.238 v 0 c 0.06,-0.912 0.1,-1.827 0.1,-2.749 v 0 c 0,-0.358 -0.017,-0.713 -0.027,-1.071 v 0 c 8.215,0.068 16.391,0.145 24.498,0.237 v 0 c -0.065,-3.974 -0.609,-7.825 -1.605,-11.545 v 0 c -7.824,0.563 -15.931,1.071 -24.306,1.506 v 0 c -0.292,-1.097 -0.626,-2.183 -1,-3.258 v 0 c 8.009,-0.28 16.173,-0.617 24.491,-1.009 v 0 c -1.351,-4.064 -3.251,-7.964 -5.652,-11.697 v 0 c -7.883,0.527 -16.045,0.991 -24.466,1.381 v 0 c -0.735,-1.122 -1.512,-2.231 -2.333,-3.321 v 0 c 8.113,-0.25 16.391,-0.559 24.827,-0.925 v 0 c -3.613,-4.954 -8.135,-9.593 -13.464,-13.904 v 0 c -7.728,1.006 -15.461,1.852 -23.194,2.525 v 0 c -1.032,-0.86 -2.093,-1.702 -3.178,-2.525 v 0 c 7.992,-0.489 15.984,-1.102 23.976,-1.872 v 0 C 210.42,63.1 203.712,59.04 196.239,55.373 v 0 c 8.002,3.359 15.466,7.381 22.106,11.93 v 0 c 7.315,-0.728 14.629,-1.568 21.944,-2.533 v 0 c -6.797,-4.686 -14.597,-8.986 -23.288,-12.872 v 0 c 8.002,3.061 15.539,6.642 22.408,10.649 v 0 c 1.08,0.632 2.146,1.273 3.191,1.924 v 0 c 0.533,0.332 1.062,0.666 1.586,1.004 v 0 c 0.762,0.489 1.517,0.985 2.257,1.486 v 0 c 6.112,4.136 11.516,8.648 16.024,13.461 v 0 c 0.392,0.418 0.787,0.835 1.166,1.259 v 0 c 0.588,0.659 1.16,1.323 1.714,1.993 v 0 c 1.189,1.433 2.3,2.889 3.325,4.368 v 0 c 5.391,7.789 8.443,16.192 8.443,24.959 v 0 c 0,10.4 -4.296,20.29 -11.701,29.246 v 0 c -0.388,0.47 -0.795,0.937 -1.201,1.402 v 0 c -0.592,0.679 -1.202,1.352 -1.83,2.02 v 0 c -0.863,0.917 -1.752,1.825 -2.679,2.72 v 0 c -0.536,0.521 -1.085,1.034 -1.642,1.545 v 0 c 0.032,0.005 0.063,0.01 0.096,0.017 v 0 c -0.195,0.179 -0.389,0.356 -0.585,0.535 v 0 c -0.035,-0.006 -0.07,-0.011 -0.106,-0.016 v 0 c -3.945,3.548 -8.389,6.9 -13.236,10.025 v 0 c -0.6,0.388 -1.206,0.77 -1.819,1.149 v 0 c -0.569,0.354 -1.14,0.711 -1.722,1.058 v 0 c -1.165,0.698 -2.356,1.379 -3.561,2.051 v 0 c -6.245,3.483 -13.002,6.622 -20.128,9.349 v 0 c 8.025,-3.496 15.291,-7.391 21.711,-11.644 m -19.508,-4.351 c 7.076,0.928 14.148,1.99 21.214,3.195 v 0 c 7.044,-4.857 12.997,-10.164 17.694,-15.88 v 0 c -7.878,-0.444 -15.623,-0.835 -23.234,-1.177 v 0 c -4.36,5.004 -9.662,9.654 -15.674,13.862 m 17.952,-16.636 c 7.821,0.544 15.377,1.141 22.659,1.782 v 0 c 2.88,-3.826 5.221,-7.824 6.958,-11.983 v 0 c -7.668,-0.463 -15.208,-0.875 -22.632,-1.242 v 0 c -1.769,3.963 -4.129,7.787 -6.985,11.443 m 10.671,-26.027 c -0.256,4.087 -1.159,8.08 -2.613,11.958 v 0 c 7.713,0.585 15.168,1.223 22.331,1.896 v 0 c 1.672,-4.541 2.645,-9.268 2.865,-14.159 v 0 c -7.457,0.113 -15.002,0.212 -22.583,0.305 m 22.636,-2.39 c 0,-0.018 10e-4,-0.035 10e-4,-0.053 v 0 c 0,-0.031 -0.003,-0.061 -0.005,-0.092 v 0 c 0.002,0.049 0.003,0.097 0.004,0.145 m -2.408,-14.722 c -7.141,0.675 -14.57,1.312 -22.26,1.899 v 0 c 1.291,3.897 2.01,7.908 2.09,12.005 v 0 c 7.575,0.093 15.109,0.191 22.559,0.305 v 0 c -0.098,-10.288 -3.499,-19.799 -9.719,-28.449 v 0 c -7.239,0.643 -14.759,1.243 -22.536,1.789 v 0 c 2.773,3.753 5.025,7.674 6.656,11.733 v 0 c 7.384,-0.367 14.883,-0.78 22.51,-1.243 v 0 c 0.249,0.65 0.48,1.304 0.7,1.961 M 220.893,69.103 c 5.851,4.273 10.974,8.978 15.143,14.025 v 0 c 7.562,-0.345 15.251,-0.736 23.073,-1.181 v 0 c -1.003,-1.275 -2.064,-2.529 -3.187,-3.766 v 0 c -0.028,0.008 -0.058,0.014 -0.085,0.019 v 0 c -0.196,-0.216 -0.401,-0.429 -0.601,-0.643 v 0 c 0.029,-0.003 0.058,-0.009 0.089,-0.013 v 0 c -3.833,-4.111 -8.326,-8.004 -13.442,-11.662 v 0 c -6.992,1.208 -13.989,2.28 -20.99,3.221"
         id="path218"
         inkscape:connector-curvature="0" /></clipPath><radialGradient
       fx="0"
       fy="0"
       cx="0"
       cy="0"
       r="1"
       gradientUnits="userSpaceOnUse"
       gradientTransform="matrix(128.16304,0,0,-128.16304,148.77827,113.22359)"
       spreadMethod="pad"
       id="radialGradient232"><stop
         style="stop-opacity:1;stop-color:#ffffff"
         offset="0"
         id="stop226" /><stop
         style="stop-opacity:1;stop-color:#ffffff"
         offset="0.37851141"
         id="stop228" /><stop
         style="stop-opacity:1;stop-color:#50b737"
         offset="1"
         id="stop230" /></radialGradient><clipPath
       clipPathUnits="userSpaceOnUse"
       id="clipPath242"><path
         d="M 0,194.226 H 297.185 V 0 H 0 Z"
         id="path240"
         inkscape:connector-curvature="0" /></clipPath></defs><sodipodi:namedview
     pagecolor="#ffffff"
     bordercolor="#666666"
     borderopacity="1"
     objecttolerance="10"
     gridtolerance="10"
     guidetolerance="10"
     inkscape:pageopacity="0"
     inkscape:pageshadow="2"
     inkscape:window-width="2560"
     inkscape:window-height="1384"
     id="namedview98"
     showgrid="false"
     fit-margin-top="0"
     fit-margin-left="0"
     fit-margin-right="0"
     fit-margin-bottom="0"
     inkscape:zoom="0.79115645"
     inkscape:cx="-355.78273"
     inkscape:cy="81.972548"
     inkscape:window-x="0"
     inkscape:window-y="18"
     inkscape:window-maximized="0"
     inkscape:current-layer="g104" /><g
     id="g104"
     inkscape:groupmode="layer"
     inkscape:label="RDA_Logotype"
     transform="matrix(1.3333333,0,0,-1.3333333,-26.829335,532.9519)"><g
       id="g333"
       transform="matrix(1.7510205,0,0,1.7510205,-15.112033,94.857766)"><g
         id="g106"><g
           clip-path="url(#clipPath112)"
           id="g108"><g
             transform="translate(22.9809,29.3506)"
             id="g114"><path
               inkscape:connector-curvature="0"
               id="path116"
               style="fill:#8f9198;fill-opacity:1;fill-rule:nonzero;stroke:none"
               d="m 0,0 c 2.76,0 4.514,1.754 4.514,4.888 v 0.057 c 0,3.248 -1.84,4.801 -4.572,4.801 H -1.236 V 0 Z M -2.501,10.896 H 0 c 1.754,0 3.191,-0.546 4.197,-1.552 C 5.203,8.337 5.778,6.843 5.778,4.974 V 4.916 C 5.778,2.128 4.485,0.115 2.3,-0.718 l 3.851,-8.51 H 4.657 l -3.65,8.194 C 0.661,-1.092 0.288,-1.121 -0.114,-1.121 h -1.122 v -8.107 h -1.265 z" /></g><g
             transform="translate(33.4419,40.2461)"
             id="g118"><path
               inkscape:connector-curvature="0"
               id="path120"
               style="fill:#8f9198;fill-opacity:1;fill-rule:nonzero;stroke:none"
               d="M 0,0 H 6.842 V -1.149 H 1.265 V -9.4 h 5.088 v -1.15 H 1.265 v -8.423 h 5.664 v -1.15 H 0 Z" /></g><g
             transform="translate(44.105,20.957)"
             id="g122"><path
               inkscape:connector-curvature="0"
               id="path124"
               style="fill:#8f9198;fill-opacity:1;fill-rule:nonzero;stroke:none"
               d="M 0,0 V 1.437 C 1.38,0.546 2.529,0.144 3.507,0.144 c 1.696,0 2.788,1.121 2.788,2.903 v 0.058 c 0,1.666 -0.604,2.731 -2.816,5.72 -2.674,3.594 -3.335,4.686 -3.335,6.526 v 0.057 c 0,2.387 1.753,4.112 3.938,4.112 1.15,0 2.07,-0.317 3.047,-0.892 V 17.19 c -1.092,0.749 -2.098,1.122 -3.076,1.122 -1.552,0 -2.645,-1.15 -2.645,-2.818 v -0.056 c 0,-1.496 0.604,-2.588 2.846,-5.434 C 6.698,6.928 7.561,5.347 7.561,3.19 V 3.133 C 7.561,0.574 5.807,-1.064 3.479,-1.064 2.3,-1.064 1.207,-0.69 0,0" /></g><g
             transform="translate(56.2622,40.2461)"
             id="g126"><path
               inkscape:connector-curvature="0"
               id="path128"
               style="fill:#8f9198;fill-opacity:1;fill-rule:nonzero;stroke:none"
               d="M 0,0 H 6.842 V -1.149 H 1.265 V -9.4 h 5.087 v -1.15 H 1.265 v -8.423 h 5.664 v -1.15 H 0 Z" /></g><g
             transform="translate(74.1977,26.9072)"
             id="g130"><path
               inkscape:connector-curvature="0"
               id="path132"
               style="fill:#8f9198;fill-opacity:1;fill-rule:nonzero;stroke:none"
               d="M 0,0 -2.386,11.441 -4.772,0 Z m -3.048,13.426 h 1.381 L 2.731,-6.784 H 1.409 l -1.18,5.635 h -5.231 l -1.179,-5.635 h -1.264 z" /></g><g
             transform="translate(83.7964,29.3506)"
             id="g134"><path
               inkscape:connector-curvature="0"
               id="path136"
               style="fill:#8f9198;fill-opacity:1;fill-rule:nonzero;stroke:none"
               d="m 0,0 c 2.76,0 4.513,1.754 4.513,4.888 v 0.057 c 0,3.248 -1.84,4.801 -4.572,4.801 H -1.236 V 0 Z M -2.502,10.896 H 0 c 1.753,0 3.19,-0.546 4.197,-1.552 1.006,-1.007 1.58,-2.501 1.58,-4.37 V 4.916 c 0,-2.788 -1.293,-4.801 -3.478,-5.634 l 3.852,-8.51 H 4.656 l -3.65,8.194 C 0.66,-1.092 0.287,-1.121 -0.115,-1.121 h -1.121 v -8.107 h -1.266 z" /></g><g
             transform="translate(93.7104,29.9258)"
             id="g138"><path
               inkscape:connector-curvature="0"
               id="path140"
               style="fill:#8f9198;fill-opacity:1;fill-rule:nonzero;stroke:none"
               d="m 0,0 v 0.518 c 0,6.698 2.501,9.975 5.376,9.975 0.892,0 1.351,-0.173 1.955,-0.489 V 8.653 C 6.584,9.084 6.037,9.285 5.376,9.285 3.134,9.285 1.266,6.268 1.266,0.518 V 0 c 0,-5.749 1.868,-8.768 4.11,-8.768 0.719,0 1.322,0.202 2.041,0.662 V -9.4 C 6.842,-9.745 6.181,-9.976 5.318,-9.976 2.357,-9.976 0,-6.698 0,0" /></g><g
             transform="translate(105.6675,40.2461)"
             id="g142"><path
               inkscape:connector-curvature="0"
               id="path144"
               style="fill:#8f9198;fill-opacity:1;fill-rule:nonzero;stroke:none"
               d="M 0,0 H 1.265 V -9.429 H 7.474 V 0 H 8.738 V -20.123 H 7.474 v 9.544 H 1.265 v -9.544 H 0 Z" /></g><g
             transform="translate(128.7173,37.6592)"
             id="g146"><path
               inkscape:connector-curvature="0"
               id="path148"
               style="fill:#8f9198;fill-opacity:1;fill-rule:nonzero;stroke:none"
               d="m 0,0 v -14.949 h 0.432 c 2.069,0 3.708,1.927 3.708,7.158 v 0.633 C 4.14,-1.926 2.473,0 0.432,0 Z m -2.846,2.587 h 3.019 c 4.254,0 6.842,-3.277 6.842,-9.745 v -0.633 c 0,-6.468 -2.588,-9.745 -6.842,-9.745 h -3.019 z" /></g><g
             transform="translate(145.2153,27.166)"
             id="g150"><path
               inkscape:connector-curvature="0"
               id="path152"
               style="fill:#8f9198;fill-opacity:1;fill-rule:nonzero;stroke:none"
               d="M 0,0 -1.466,8.078 -2.933,0 Z M -2.933,13.138 H 0.114 L 4.11,-7.043 H 1.235 l -0.804,4.484 h -3.795 l -0.805,-4.484 h -2.76 z" /></g><g
             transform="translate(153.6636,37.5732)"
             id="g154"><path
               inkscape:connector-curvature="0"
               id="path156"
               style="fill:#8f9198;fill-opacity:1;fill-rule:nonzero;stroke:none"
               d="M 0,0 H -2.73 V 2.673 H 5.549 V 0 H 2.818 V -17.45 H 0 Z" /></g><g
             transform="translate(167.7485,27.166)"
             id="g158"><path
               inkscape:connector-curvature="0"
               id="path160"
               style="fill:#8f9198;fill-opacity:1;fill-rule:nonzero;stroke:none"
               d="M 0,0 -1.466,8.078 -2.933,0 Z M -2.933,13.138 H 0.114 L 4.11,-7.043 H 1.235 l -0.804,4.484 h -3.795 l -0.805,-4.484 h -2.76 z" /></g><g
             transform="translate(187.7515,27.4248)"
             id="g162"><path
               inkscape:connector-curvature="0"
               id="path164"
               style="fill:#8f9198;fill-opacity:1;fill-rule:nonzero;stroke:none"
               d="M 0,0 -0.948,6.324 -1.926,0 Z M -3.363,12.879 H 1.582 L 5.405,-7.302 H 1.093 L 0.547,-3.68 h -3.019 l -0.546,-3.622 h -4.197 z" /></g><g
             transform="translate(195.7983,40.2461)"
             id="g166"><path
               inkscape:connector-curvature="0"
               id="path168"
               style="fill:#8f9198;fill-opacity:1;fill-rule:nonzero;stroke:none"
               d="m 0,0 h 4.312 v -16.012 h 3.823 v -4.111 H 0 Z" /></g><g
             transform="translate(207.0063,40.2461)"
             id="g170"><path
               inkscape:connector-curvature="0"
               id="path172"
               style="fill:#8f9198;fill-opacity:1;fill-rule:nonzero;stroke:none"
               d="m 0,0 h 4.312 v -16.012 h 3.824 v -4.111 H 0 Z" /></g><path
             inkscape:connector-curvature="0"
             id="path174"
             style="fill:#8f9198;fill-opacity:1;fill-rule:nonzero;stroke:none"
             d="m 218.273,40.246 h 4.312 V 20.123 h -4.312 z" /><g
             transform="translate(232.4722,27.4248)"
             id="g176"><path
               inkscape:connector-curvature="0"
               id="path178"
               style="fill:#8f9198;fill-opacity:1;fill-rule:nonzero;stroke:none"
               d="M 0,0 -0.949,6.324 -1.926,0 Z M -3.363,12.879 H 1.581 L 5.404,-7.302 H 1.092 L 0.547,-3.68 h -3.02 l -0.546,-3.622 h -4.197 z" /></g><g
             transform="translate(240.5181,40.2461)"
             id="g180"><path
               inkscape:connector-curvature="0"
               id="path182"
               style="fill:#8f9198;fill-opacity:1;fill-rule:nonzero;stroke:none"
               d="M 0,0 H 4.14 L 7.273,-9.084 V 0 h 4.14 V -20.123 H 7.475 L 4.14,-10.55 v -9.573 H 0 Z" /></g><g
             transform="translate(255.2046,29.667)"
             id="g184"><path
               inkscape:connector-curvature="0"
               id="path186"
               style="fill:#8f9198;fill-opacity:1;fill-rule:nonzero;stroke:none"
               d="m 0,0 v 1.007 c 0,7.071 3.133,9.802 6.641,9.802 1.121,0 1.81,-0.172 2.616,-0.546 V 5.922 C 8.48,6.382 7.819,6.641 7.072,6.641 5.635,6.641 4.398,5.434 4.398,0.892 V 0.143 c 0,-4.743 1.151,-5.72 2.788,-5.72 0.633,0 1.294,0.23 2.157,0.719 v -4.14 C 8.48,-9.516 7.618,-9.774 6.354,-9.774 2.817,-9.774 0,-6.784 0,0" /></g><g
             transform="translate(267.8794,40.2461)"
             id="g188"><path
               inkscape:connector-curvature="0"
               id="path190"
               style="fill:#8f9198;fill-opacity:1;fill-rule:nonzero;stroke:none"
               d="M 0,0 H 8.71 V -4.082 H 4.311 v -3.909 h 3.911 v -4.026 H 4.311 v -3.995 h 4.485 v -4.111 H 0 Z" /></g></g></g><g
         id="g192"><g
           clip-path="url(#clipPath198)"
           id="g194"><g
             id="g200"><g
               id="g202"><path
                 inkscape:connector-curvature="0"
                 id="path212"
                 style="fill:url(#radialGradient210);stroke:none"
                 d="m 60.109,164.753 c -1.205,-0.672 -2.395,-1.353 -3.561,-2.051 v 0 c -0.581,-0.347 -1.151,-0.704 -1.723,-1.058 v 0 c -0.611,-0.379 -1.218,-0.761 -1.817,-1.149 v 0 C 48.162,157.37 43.717,154.018 39.771,150.47 v 0 c -0.034,0.005 -0.069,0.01 -0.104,0.016 v 0 c -0.197,-0.179 -0.392,-0.356 -0.585,-0.535 v 0 c 0.031,-0.007 0.062,-0.012 0.095,-0.017 v 0 c -0.557,-0.511 -1.106,-1.024 -1.642,-1.545 v 0 c -0.928,-0.895 -1.817,-1.803 -2.68,-2.72 v 0 c -0.627,-0.668 -1.236,-1.341 -1.83,-2.02 v 0 c -0.405,-0.465 -0.811,-0.932 -1.201,-1.402 v 0 C 24.421,133.291 20.122,123.401 20.122,113.001 v 0 c 0,-8.767 3.053,-17.17 8.446,-24.959 v 0 c 1.023,-1.479 2.135,-2.935 3.324,-4.368 v 0 c 0.555,-0.67 1.125,-1.334 1.713,-1.993 v 0 c 0.379,-0.424 0.773,-0.841 1.166,-1.259 v 0 c 4.51,-4.813 9.912,-9.325 16.023,-13.461 v 0 c 0.743,-0.501 1.497,-0.997 2.259,-1.486 v 0 c 0.524,-0.338 1.052,-0.672 1.586,-1.004 v 0 c 1.046,-0.651 2.11,-1.292 3.19,-1.924 v 0 C 64.698,58.54 72.236,54.959 80.238,51.898 v 0 c -8.692,3.886 -16.493,8.186 -23.29,12.872 v 0 c 7.317,0.965 14.632,1.805 21.946,2.533 v 0 c 6.638,-4.549 14.105,-8.571 22.107,-11.93 v 0 C 93.527,59.04 86.818,63.1 80.974,67.523 v 0 c 7.992,0.77 15.985,1.383 23.978,1.872 v 0 c -1.087,0.823 -2.147,1.665 -3.178,2.525 v 0 C 94.038,71.247 86.307,70.401 78.58,69.395 v 0 c -5.331,4.311 -9.852,8.95 -13.465,13.904 v 0 c 8.436,0.366 16.715,0.675 24.826,0.925 v 0 c -0.82,1.09 -1.598,2.199 -2.331,3.321 v 0 C 79.188,87.155 71.026,86.691 63.142,86.164 v 0 c -2.4,3.733 -4.301,7.633 -5.651,11.697 v 0 c 8.317,0.392 16.482,0.729 24.491,1.009 v 0 c -0.375,1.075 -0.709,2.161 -0.999,3.258 v 0 C 72.607,101.693 64.5,101.185 56.676,100.622 v 0 c -0.996,3.72 -1.54,7.571 -1.606,11.545 v 0 c 8.108,-0.092 16.285,-0.169 24.498,-0.237 v 0 c -0.01,0.358 -0.028,0.713 -0.028,1.071 v 0 c 0,0.922 0.043,1.837 0.102,2.749 v 0 c -8.221,-0.068 -16.404,-0.145 -24.522,-0.238 v 0 c 0.202,3.959 0.89,7.797 2.017,11.51 v 0 c 7.827,-0.561 15.934,-1.064 24.312,-1.495 v 0 c 0.337,1.096 0.726,2.183 1.146,3.26 v 0 c -8.021,0.278 -16.2,0.612 -24.531,1.002 v 0 c 1.466,3.964 3.454,7.772 5.92,11.417 v 0 c 7.914,-0.522 16.103,-0.984 24.557,-1.37 v 0 c 0.783,1.129 1.606,2.238 2.474,3.331 v 0 c -8.156,0.248 -16.482,0.555 -24.965,0.92 v 0 c 3.766,4.926 8.436,9.526 13.904,13.769 v 0 c 7.803,-0.996 15.608,-1.824 23.416,-2.479 v 0 c 1.09,0.867 2.207,1.714 3.354,2.543 v 0 c -8.076,0.473 -16.148,1.078 -24.225,1.839 v 0 c 5.479,3.965 11.671,7.6 18.502,10.867 v 0 c -7.269,-3.053 -14.095,-6.644 -20.262,-10.688 v 0 c -7.404,0.717 -14.808,1.561 -22.211,2.52 v 0 c 6.419,4.253 13.685,8.148 21.71,11.644 v 0 c -7.127,-2.727 -13.883,-5.866 -20.129,-9.349 M 39.128,145.422 c 4.697,5.716 10.649,11.023 17.694,15.88 v 0 c 7.065,-1.205 14.137,-2.267 21.213,-3.195 v 0 c -6.012,-4.208 -11.314,-8.858 -15.673,-13.862 v 0 c -7.612,0.342 -15.357,0.733 -23.234,1.177 M 30.464,131.27 c 1.739,4.159 4.081,8.157 6.959,11.983 v 0 c 7.284,-0.641 14.838,-1.238 22.659,-1.782 v 0 c -2.855,-3.656 -5.214,-7.48 -6.984,-11.443 v 0 c -7.424,0.367 -14.964,0.779 -22.634,1.242 m -0.769,-1.972 c 7.162,-0.673 14.617,-1.311 22.33,-1.896 v 0 c -1.454,-3.878 -2.357,-7.871 -2.612,-11.958 v 0 c -7.583,-0.093 -15.127,-0.192 -22.584,-0.305 v 0 c 0.22,4.891 1.192,9.618 2.866,14.159 m -2.92,-16.297 c 0,0.018 0.002,0.035 0.002,0.053 v 0 c 0,-0.047 10e-4,-0.095 0.003,-0.143 v 0 c -0.003,0.03 -0.005,0.06 -0.005,0.09 m 0.02,-0.46 c 7.448,-0.114 14.985,-0.212 22.559,-0.305 v 0 c 0.08,-4.097 0.798,-8.108 2.089,-12.005 v 0 C 43.754,99.644 36.324,99.007 29.183,98.332 v 0 c 0.221,-0.657 0.452,-1.311 0.702,-1.961 v 0 c 7.626,0.463 15.124,0.876 22.509,1.243 v 0 c 1.631,-4.059 3.883,-7.98 6.656,-11.733 v 0 C 51.273,85.335 43.753,84.735 36.513,84.092 v 0 c -6.22,8.65 -9.62,18.161 -9.718,28.449 M 38.13,81.947 c 7.82,0.445 15.511,0.836 23.073,1.181 v 0 c 4.169,-5.047 9.29,-9.752 15.143,-14.025 v 0 C 69.345,68.162 62.348,67.09 55.356,65.882 v 0 c -5.115,3.658 -9.611,7.551 -13.441,11.662 v 0 c 0.03,0.004 0.059,0.01 0.088,0.013 v 0 c -0.201,0.214 -0.404,0.427 -0.601,0.643 v 0 c -0.027,-0.005 -0.057,-0.011 -0.085,-0.019 v 0 c -1.124,1.237 -2.185,2.491 -3.187,3.766" /></g></g></g></g><g
         id="g214"><g
           clip-path="url(#clipPath220)"
           id="g216"><g
             id="g222"><g
               id="g224"><path
                 inkscape:connector-curvature="0"
                 id="path234"
                 style="fill:url(#radialGradient232);stroke:none"
                 d="m 238.712,162.458 c -7.405,-0.959 -14.807,-1.803 -22.212,-2.52 v 0 c -6.166,4.044 -12.994,7.635 -20.261,10.688 v 0 c 6.831,-3.267 13.022,-6.902 18.5,-10.867 v 0 c -8.076,-0.761 -16.149,-1.366 -24.224,-1.839 v 0 c 1.146,-0.829 2.264,-1.676 3.355,-2.543 v 0 c 7.806,0.655 15.612,1.483 23.414,2.479 v 0 c 5.47,-4.243 10.138,-8.843 13.905,-13.769 v 0 c -8.483,-0.365 -16.81,-0.672 -24.966,-0.92 v 0 c 0.87,-1.093 1.692,-2.202 2.474,-3.331 v 0 c 8.454,0.386 16.644,0.848 24.558,1.37 v 0 c 2.466,-3.645 4.455,-7.453 5.919,-11.417 v 0 c -8.329,-0.39 -16.509,-0.724 -24.531,-1.002 v 0 c 0.42,-1.077 0.811,-2.164 1.146,-3.26 v 0 c 8.379,0.431 16.487,0.934 24.313,1.495 v 0 c 1.128,-3.713 1.814,-7.551 2.017,-11.51 v 0 c -8.117,0.093 -16.302,0.17 -24.522,0.238 v 0 c 0.06,-0.912 0.1,-1.827 0.1,-2.749 v 0 c 0,-0.358 -0.017,-0.713 -0.027,-1.071 v 0 c 8.215,0.068 16.391,0.145 24.498,0.237 v 0 c -0.065,-3.974 -0.609,-7.825 -1.605,-11.545 v 0 c -7.824,0.563 -15.931,1.071 -24.306,1.506 v 0 c -0.292,-1.097 -0.626,-2.183 -1,-3.258 v 0 c 8.009,-0.28 16.173,-0.617 24.491,-1.009 v 0 c -1.351,-4.064 -3.251,-7.964 -5.652,-11.697 v 0 c -7.883,0.527 -16.045,0.991 -24.466,1.381 v 0 c -0.735,-1.122 -1.512,-2.231 -2.333,-3.321 v 0 c 8.113,-0.25 16.391,-0.559 24.827,-0.925 v 0 c -3.613,-4.954 -8.135,-9.593 -13.464,-13.904 v 0 c -7.728,1.006 -15.461,1.852 -23.194,2.525 v 0 c -1.032,-0.86 -2.093,-1.702 -3.178,-2.525 v 0 c 7.992,-0.489 15.984,-1.102 23.976,-1.872 v 0 C 210.42,63.1 203.712,59.04 196.239,55.373 v 0 c 8.002,3.359 15.466,7.381 22.106,11.93 v 0 c 7.315,-0.728 14.629,-1.568 21.944,-2.533 v 0 c -6.797,-4.686 -14.597,-8.986 -23.288,-12.872 v 0 c 8.002,3.061 15.539,6.642 22.408,10.649 v 0 c 1.08,0.632 2.146,1.273 3.191,1.924 v 0 c 0.533,0.332 1.062,0.666 1.586,1.004 v 0 c 0.762,0.489 1.517,0.985 2.257,1.486 v 0 c 6.112,4.136 11.516,8.648 16.024,13.461 v 0 c 0.392,0.418 0.787,0.835 1.166,1.259 v 0 c 0.588,0.659 1.16,1.323 1.714,1.993 v 0 c 1.189,1.433 2.3,2.889 3.325,4.368 v 0 c 5.391,7.789 8.443,16.192 8.443,24.959 v 0 c 0,10.4 -4.296,20.29 -11.701,29.246 v 0 c -0.388,0.47 -0.795,0.937 -1.201,1.402 v 0 c -0.592,0.679 -1.202,1.352 -1.83,2.02 v 0 c -0.863,0.917 -1.752,1.825 -2.679,2.72 v 0 c -0.536,0.521 -1.085,1.034 -1.642,1.545 v 0 c 0.032,0.005 0.063,0.01 0.096,0.017 v 0 c -0.195,0.179 -0.389,0.356 -0.585,0.535 v 0 c -0.035,-0.006 -0.07,-0.011 -0.106,-0.016 v 0 c -3.945,3.548 -8.389,6.9 -13.236,10.025 v 0 c -0.6,0.388 -1.206,0.77 -1.819,1.149 v 0 c -0.569,0.354 -1.14,0.711 -1.722,1.058 v 0 c -1.165,0.698 -2.356,1.379 -3.561,2.051 v 0 c -6.245,3.483 -13.002,6.622 -20.128,9.349 v 0 c 8.025,-3.496 15.291,-7.391 21.711,-11.644 m -19.508,-4.351 c 7.076,0.928 14.148,1.99 21.214,3.195 v 0 c 7.044,-4.857 12.997,-10.164 17.694,-15.88 v 0 c -7.878,-0.444 -15.623,-0.835 -23.234,-1.177 v 0 c -4.36,5.004 -9.662,9.654 -15.674,13.862 m 17.952,-16.636 c 7.821,0.544 15.377,1.141 22.659,1.782 v 0 c 2.88,-3.826 5.221,-7.824 6.958,-11.983 v 0 c -7.668,-0.463 -15.208,-0.875 -22.632,-1.242 v 0 c -1.769,3.963 -4.129,7.787 -6.985,11.443 m 10.671,-26.027 c -0.256,4.087 -1.159,8.08 -2.613,11.958 v 0 c 7.713,0.585 15.168,1.223 22.331,1.896 v 0 c 1.672,-4.541 2.645,-9.268 2.865,-14.159 v 0 c -7.457,0.113 -15.002,0.212 -22.583,0.305 m 22.636,-2.39 c 0,-0.018 10e-4,-0.035 10e-4,-0.053 v 0 c 0,-0.031 -0.003,-0.061 -0.005,-0.092 v 0 c 0.002,0.049 0.003,0.097 0.004,0.145 m -2.408,-14.722 c -7.141,0.675 -14.57,1.312 -22.26,1.899 v 0 c 1.291,3.897 2.01,7.908 2.09,12.005 v 0 c 7.575,0.093 15.109,0.191 22.559,0.305 v 0 c -0.098,-10.288 -3.499,-19.799 -9.719,-28.449 v 0 c -7.239,0.643 -14.759,1.243 -22.536,1.789 v 0 c 2.773,3.753 5.025,7.674 6.656,11.733 v 0 c 7.384,-0.367 14.883,-0.78 22.51,-1.243 v 0 c 0.249,0.65 0.48,1.304 0.7,1.961 M 220.893,69.103 c 5.851,4.273 10.974,8.978 15.143,14.025 v 0 c 7.562,-0.345 15.251,-0.736 23.073,-1.181 v 0 c -1.003,-1.275 -2.064,-2.529 -3.187,-3.766 v 0 c -0.028,0.008 -0.058,0.014 -0.085,0.019 v 0 c -0.196,-0.216 -0.401,-0.429 -0.601,-0.643 v 0 c 0.029,-0.003 0.058,-0.009 0.089,-0.013 v 0 c -3.833,-4.111 -8.326,-8.004 -13.442,-11.662 v 0 c -6.992,1.208 -13.989,2.28 -20.99,3.221" /></g></g></g></g><g
         id="g236"><g
           clip-path="url(#clipPath242)"
           id="g238"><g
             transform="translate(193.3833,72.0918)"
             id="g244"><path
               inkscape:connector-curvature="0"
               id="path246"
               style="fill:#65241e;fill-opacity:1;fill-rule:nonzero;stroke:none"
               d="m 0,0 c 4.145,3.813 7.691,7.895 10.58,12.232 0.742,1.114 1.441,2.242 2.096,3.387 2.055,3.609 3.67,7.379 4.804,11.307 0.318,1.101 0.602,2.213 0.842,3.34 0.664,3.087 1.032,6.266 1.102,9.533 0.009,0.371 0.023,0.738 0.023,1.11 0,0.938 -0.034,1.865 -0.084,2.79 -0.175,3.256 -0.648,6.43 -1.418,9.512 -0.281,1.127 -0.607,2.238 -0.965,3.342 -1.244,3.832 -2.943,7.516 -5.066,11.037 -0.692,1.149 -1.43,2.28 -2.211,3.394 -3.033,4.328 -6.724,8.389 -11.01,12.156 -0.464,0.406 -0.937,0.809 -1.414,1.209 -0.552,0.465 -1.115,0.923 -1.687,1.379 -0.01,0.007 -0.021,0.014 -0.031,0.022 -13.096,-0.736 -26.558,-1.125 -40.3,-1.125 -13.758,0 -27.236,0.389 -40.346,1.128 -0.012,-0.009 -0.023,-0.017 -0.034,-0.025 -0.572,-0.456 -1.135,-0.914 -1.688,-1.379 -0.476,-0.4 -0.95,-0.803 -1.414,-1.209 -4.286,-3.767 -7.976,-7.828 -11.011,-12.156 -0.781,-1.114 -1.517,-2.245 -2.209,-3.394 -2.124,-3.521 -3.824,-7.205 -5.067,-11.037 -0.357,-1.104 -0.684,-2.215 -0.966,-3.342 -0.768,-3.082 -1.242,-6.256 -1.417,-9.512 -0.049,-0.925 -0.084,-1.852 -0.084,-2.79 0,-0.372 0.015,-0.739 0.023,-1.11 0.07,-3.267 0.437,-6.446 1.101,-9.533 0.242,-1.127 0.526,-2.239 0.842,-3.34 1.135,-3.928 2.75,-7.698 4.805,-11.307 0.654,-1.145 1.353,-2.273 2.096,-3.387 2.889,-4.337 6.435,-8.419 10.58,-12.232 0.615,-0.567 1.247,-1.126 1.888,-1.682 0.347,-0.298 0.699,-0.597 1.054,-0.893 0.001,-10e-4 0.002,-0.002 0.003,-0.003 13.58,0.795 27.562,1.211 41.844,1.211 14.264,0 28.232,-0.414 41.798,-1.208 0.355,0.296 0.707,0.595 1.054,0.893 C -1.246,-1.126 -0.614,-0.567 0,0" /></g><g
             transform="translate(106.7973,69.5166)"
             id="g248"><path
               inkscape:connector-curvature="0"
               id="path250"
               style="fill:#ffffff;fill-opacity:1;fill-rule:nonzero;stroke:none"
               d="m 0,0 c -0.355,0.296 -0.707,0.595 -1.054,0.894 -0.641,0.555 -1.273,1.114 -1.888,1.681 -4.145,3.813 -7.691,7.895 -10.58,12.233 -0.743,1.113 -1.442,2.241 -2.096,3.386 -2.055,3.609 -3.67,7.379 -4.805,11.307 -0.316,1.102 -0.6,2.213 -0.842,3.34 -0.664,3.087 -1.031,6.266 -1.101,9.533 -0.008,0.371 -0.023,0.738 -0.023,1.11 0,0.938 0.035,1.866 0.084,2.79 0.175,3.256 0.649,6.43 1.417,9.512 0.282,1.127 0.609,2.238 0.966,3.342 1.243,3.832 2.943,7.517 5.067,11.037 0.692,1.149 1.428,2.28 2.209,3.394 3.035,4.328 6.725,8.389 11.011,12.156 0.464,0.406 0.938,0.809 1.414,1.209 0.553,0.465 1.116,0.924 1.688,1.379 0.011,0.008 0.022,0.016 0.034,0.025 4.534,3.61 9.632,6.925 15.235,9.916 -6.01,-2.816 -11.663,-6.122 -16.793,-9.829 -0.005,-0.004 -0.011,-0.008 -0.016,-0.012 -1.147,-0.828 -2.264,-1.676 -3.355,-2.543 -4.696,-3.734 -8.866,-7.826 -12.354,-12.209 -0.868,-1.093 -1.692,-2.203 -2.474,-3.332 -2.447,-3.527 -4.452,-7.221 -5.946,-11.049 -0.42,-1.077 -0.81,-2.164 -1.147,-3.26 -0.976,-3.184 -1.584,-6.447 -1.806,-9.777 -0.06,-0.912 -0.102,-1.827 -0.102,-2.749 0,-0.357 0.018,-0.713 0.028,-1.07 0.086,-3.333 0.567,-6.607 1.415,-9.803 0.29,-1.096 0.624,-2.182 0.999,-3.258 1.361,-3.918 3.264,-7.704 5.628,-11.325 0.733,-1.122 1.51,-2.231 2.332,-3.321 3.31,-4.399 7.301,-8.524 11.832,-12.304 1.03,-0.859 2.087,-1.699 3.173,-2.521 0.001,-0.002 0.002,-0.003 0.004,-0.004 C 3.746,-4.372 10.018,-8.13 16.736,-11.277 10.508,-7.867 4.902,-4.101 0.003,-0.003 0.002,-0.002 0.001,-0.001 0,0" /></g><g
             transform="translate(217.5962,115.75)"
             id="g252"><path
               inkscape:connector-curvature="0"
               id="path254"
               style="fill:#ffffff;fill-opacity:1;fill-rule:nonzero;stroke:none"
               d="m 0,0 c -0.222,3.329 -0.83,6.593 -1.807,9.776 -0.336,1.097 -0.726,2.184 -1.146,3.261 -1.493,3.827 -3.498,7.522 -5.945,11.049 -0.783,1.129 -1.606,2.238 -2.475,3.332 -3.487,4.383 -7.658,8.475 -12.354,12.209 -1.09,0.867 -2.208,1.715 -3.354,2.543 -0.004,0.003 -0.009,0.006 -0.013,0.008 -5.131,3.709 -10.785,7.015 -16.797,9.833 5.606,-2.991 10.704,-6.309 15.24,-9.919 0.009,-0.008 0.02,-0.015 0.03,-0.023 0.572,-0.455 1.135,-0.914 1.687,-1.379 0.477,-0.399 0.951,-0.802 1.414,-1.209 4.286,-3.766 7.977,-7.828 11.01,-12.155 0.782,-1.114 1.519,-2.245 2.211,-3.394 2.123,-3.521 3.822,-7.205 5.067,-11.037 0.357,-1.104 0.683,-2.215 0.964,-3.342 0.77,-3.082 1.244,-6.256 1.418,-9.512 0.05,-0.925 0.084,-1.852 0.084,-2.79 0,-0.372 -0.014,-0.739 -0.023,-1.11 -0.069,-3.267 -0.438,-6.447 -1.102,-9.534 -0.24,-1.127 -0.524,-2.238 -0.841,-3.339 -1.135,-3.928 -2.749,-7.699 -4.805,-11.307 -0.654,-1.146 -1.354,-2.273 -2.096,-3.387 -2.888,-4.338 -6.435,-8.42 -10.58,-12.232 -0.614,-0.568 -1.246,-1.126 -1.887,-1.682 -0.347,-0.299 -0.699,-0.598 -1.054,-0.893 -4.901,-4.1 -10.507,-7.867 -16.737,-11.278 6.719,3.148 12.991,6.906 18.582,11.156 0.003,10e-4 0.006,0.003 0.008,0.006 1.083,0.822 2.142,1.661 3.17,2.519 4.529,3.779 8.522,7.904 11.832,12.304 0.821,1.09 1.598,2.199 2.332,3.321 2.364,3.621 4.266,7.406 5.627,11.324 0.375,1.076 0.709,2.162 1,3.259 0.848,3.195 1.328,6.47 1.414,9.803 0.01,0.357 0.028,0.713 0.028,1.07 C 0.102,-1.827 0.061,-0.912 0,0" /></g><g
             transform="translate(110.3852,114.5625)"
             id="g256"><path
               inkscape:connector-curvature="0"
               id="path258"
               style="fill:#ffffff;fill-opacity:1;fill-rule:nonzero;stroke:none"
               d="m 0,0 c 3.516,0 6.048,2.206 6.048,8.095 v 1.229 c 0,6.13 -2.612,8.015 -6.133,8.015 H -0.41 V 0 Z m -12.6,28.3 h 12.274 c 5.722,0 10.713,-1.474 14.062,-4.828 3.032,-3.109 4.826,-7.521 4.826,-13.741 V 8.909 c 0,-7.847 -3.026,-12.344 -6.703,-15.204 l 7.604,-22.659 H 6.373 L 0.578,-10.3 H -0.41 V -28.954 H -12.6 Z" /></g><g
             transform="translate(145.6509,131.5761)"
             id="g260"><path
               inkscape:connector-curvature="0"
               id="path262"
               style="fill:#ffffff;fill-opacity:1;fill-rule:nonzero;stroke:none"
               d="m 0,0 v -34.675 c 4.497,0 8.014,3.429 8.014,15.863 v 2.947 C 8.014,-3.191 4.497,0 0,0 m -12.268,11.286 h 11.455 c 13.901,0 21.343,-9.487 21.343,-27.237 v -2.78 c 0,-17.745 -7.442,-27.237 -21.343,-27.237 h -11.455 z" /></g><g
             transform="translate(186.1821,106.2246)"
             id="g264"><path
               inkscape:connector-curvature="0"
               id="path266"
               style="fill:#ffffff;fill-opacity:1;fill-rule:nonzero;stroke:none"
               d="M 0,0 -2.699,17.992 -5.479,0 Z M -9.565,36.638 H 4.498 L 15.377,-20.771 H 3.109 L 1.555,-10.47 h -8.587 l -1.556,-10.301 h -11.937 z" /></g></g></g></g></g></svg>